# xmcd
#
# Track frame offsets:
#	150
#	881
#	16922
#	33728
#	51160
#	52654
#	67325
#	81108
#	84871
#	104967
#	121570
#	123869
#	140673
#	158917
#	174985
#	191243
#	209524
#	226172
#	240674
#	258256
#	274527
#	291374
#	306859
#	320971
#	340471
#	341102
#	341826
#	342464
#
# Disc length: 4574 seconds
#
# Revision: 1
# Processed by: cddbd v1.5.2PL0 Copyright (c) Steve Scherf et al.
# Submitted via: audiograbber 1.83.01
#
DISCID=a311dc1c
DTITLE=Country Hotdisc  - Country Hotdisc 099
DYEAR=2007
DGENRE=Country
TTITLE0=Intro  - Intro 
TTITLE1=I Own The Barstool  - Randy Archer
TTITLE2=And The Rain  - Jokers Wild Band
TTITLE3=What Coes Around Comes Around  - Jennifer Louise
TTITLE4=Soundbite  - Karen Lynne
TTITLE5=Blue Mouintain Rain - Karen Lynne
TTITLE6=Forgive Me Darling  - Troy Cook Jr
TTITLE7=Soundbite  - Troy Cook Jr
TTITLE8=Angel In Disguise - Jackie Storrar
TTITLE9=Back To Lafayette  - Brityn Lotz 
TTITLE10=Sounbite - George Mcanthony
TTITLE11=Seed Of Change  - George Mcanthony
TTITLE12=41 Going On 17 - Brian Hughes
TTITLE13=Somebody압 Gonna Gat Hurt  - Ralph Parker
TTITLE14=Rockstar  - Sean Patrick Mcgraw
TTITLE15=Worm Out Blues  - Sprockett
TTITLE16=Yesterday  - Elisabeth Ames and The Country Politans
TTITLE17=Over And Over  - Richard Frankz
TTITLE18=Tender Loving  - Barnaby Newman
TTITLE19=Mum And Dad  - Henry Smith
TTITLE20=Sail Away  - The Rider
TTITLE21=Ain앖 Nothing 악out You - Rivers Rutherford
TTITLE22=Close Up The Honky Tonks  - Lis Talley
TTITLE23=Interview Karen Lynne  - Fran Ifield
TTITLE24=Id압  - George Mcanthony
TTITLE25=Id압  - Jackie Storrar
TTITLE26=Id압  - Jackie Storrar
TTITLE27=Id압  - Jackie Storrar
EXTD=
EXTT0=
EXTT1=
EXTT2=
EXTT3=
EXTT4=
EXTT5=
EXTT6=
EXTT7=
EXTT8=
EXTT9=
EXTT10=
EXTT11=
EXTT12=
EXTT13=
EXTT14=
EXTT15=
EXTT16=
EXTT17=
EXTT18=
EXTT19=
EXTT20=
EXTT21=
EXTT22=
EXTT23=
EXTT24=
EXTT25=
EXTT26=
EXTT27=
PLAYORDER=
